<svg width="400" height="400" viewBox="0 0 400 400" fill="none" xmlns="http://www.w3.org/2000/svg">
<path d="M196.13 68.82V44.56" stroke="#6A0BFF" stroke-width="12" stroke-miterlimit="10" stroke-linecap="round" stroke-linejoin="round"/>
<path d="M325.6 198.3H349.87" stroke="#6A0BFF" stroke-width="12" stroke-miterlimit="10" stroke-linecap="round" stroke-linejoin="round"/>
<path d="M66.6599 198.3H42.3999" stroke="#6A0BFF" stroke-width="12" stroke-miterlimit="10" stroke-linecap="round" stroke-linejoin="round"/>
<path d="M104.58 289.85L87.4199 307" stroke="#6A0BFF" stroke-width="12" stroke-miterlimit="10" stroke-linecap="round" stroke-linejoin="round"/>
<path d="M287.68 289.85L304.84 307" stroke="#6A0BFF" stroke-width="12" stroke-miterlimit="10" stroke-linecap="round" stroke-linejoin="round"/>
<path d="M287.68 106.74L304.84 89.59" stroke="#6A0BFF" stroke-width="12" stroke-miterlimit="10" stroke-linecap="round" stroke-linejoin="round"/>
<path d="M104.58 106.74L87.4199 89.59" stroke="#6A0BFF" stroke-width="12" stroke-miterlimit="10" stroke-linecap="round" stroke-linejoin="round"/>
<path d="M196.13 210.3V317.47" stroke="#6A0BFF" stroke-width="12" stroke-miterlimit="10" stroke-linecap="round" stroke-linejoin="round"/>
<path d="M175.22 199.78L196.13 210.3L217.04 199.78" stroke="#6A0BFF" stroke-width="12" stroke-miterlimit="10" stroke-linecap="round" stroke-linejoin="round"/>
<path d="M167.72 336.95H224.54" stroke="#191919" stroke-width="12" stroke-miterlimit="10" stroke-linecap="round" stroke-linejoin="round"/>
<path d="M175.22 355.44H217.04" stroke="#191919" stroke-width="12" stroke-miterlimit="10" stroke-linecap="round" stroke-linejoin="round"/>
<path d="M287.13 194.13C287.13 143.44 245.68 102.43 194.83 103.14C144.73 103.84 104.31 145.57 105.14 195.67C105.7 229.2 124.39 258.32 151.83 273.64C156.26 276.11 158.95 280.84 158.95 285.91V303.32C158.95 311.13 165.28 317.47 173.1 317.47H219.15C226.96 317.47 233.3 311.14 233.3 303.32V285.91C233.3 280.85 235.98 276.11 240.4 273.64C268.28 258.09 287.13 228.31 287.13 194.13Z" stroke="#191919" stroke-width="12" stroke-miterlimit="10" stroke-linecap="round" stroke-linejoin="round"/>
</svg>
